PathFileType  4	(X/Y/Z) C:\simtk\uwmodels\fbknee\data\invivovalid3\exp\aclc01\Files_W_HJCs
DataRate	CameraRate	NumFrames	NumMarkers	Units	OrigDataRate	OrigDataStartFrame	OrigNumFrames
  200.0      200.0       4         52 mm      200.0         452      1204
Frame#	Time            R.Shoulder                       R.Clavicle                       R.Bicep                          R.Elbow                          R.Forearm                        R.Wrist                          L.Shoulder                       L.Clavicle                       L.Scapula                        L.Bicep                          L.Elbow                          L.Forearm                        L.Wrist                          R.ASIS                           R.PSIS                           S2                               L.PSIS                           L.ASIS                           R.TH1                            R.TH2                            R.TH3                            R.Knee                           R.SH1                            R.SH2                            R.SH3                            R.SH4                            R.Ankle                          R.Heel                           R.MT5                            L.TH1                            L.TH2                            L.TH3                            L.TH4                            L.Knee                           L.SH1                            L.SH2                            L.SH3                            L.Ankle                          L.Heel                           L.MT5                            R.Melb                           R.GTR                            R.Mkn                            R.Man                            R.MT0                            L.Melb                           L.GTR                            L.Mkn                            L.Man                            L.MT0                            R_HJC                            L_HJC                  
                     X1         Y1         Z1         X2         Y2         Z2         X3         Y3         Z3         X4         Y4         Z4         X5         Y5         Z5         X6         Y6         Z6         X7         Y7         Z7         X8         Y8         Z8         X9         Y9         Z9         X10         Y10         Z10         X11         Y11         Z11         X12         Y12         Z12         X13         Y13         Z13         X14         Y14         Z14         X15         Y15         Z15         X16         Y16         Z16         X17         Y17         Z17         X18         Y18         Z18         X19         Y19         Z19         X20         Y20         Z20         X21         Y21         Z21         X22         Y22         Z22         X23         Y23         Z23         X24         Y24         Z24         X25         Y25         Z25         X26         Y26         Z26         X27         Y27         Z27         X28         Y28         Z28         X29         Y29         Z29         X30         Y30         Z30         X31         Y31         Z31         X32         Y32         Z32         X33         Y33         Z33         X34         Y34         Z34         X35         Y35         Z35         X36         Y36         Z36         X37         Y37         Z37         X38         Y38         Z38         X39         Y39         Z39         X40         Y40         Z40         X41         Y41         Z41         X42         Y42         Z42         X43         Y43         Z43         X44         Y44         Z44         X45         Y45         Z45         X46         Y46         Z46         X47         Y47         Z47         X48         Y48         Z48         X49         Y49         Z49         X50         Y50         Z50         X51         Y51         Z51         X52         Y52         Z52         

	452	2.25500	537.167	1931.560	1605.860	617.124	2081.669	1600.401	587.194	1883.975	1396.921	470.535	1852.075	1305.927	551.486	1764.029	1247.457	503.589	1733.557	1132.517	572.152	2308.484	1610.002	626.887	2138.977	1600.964	444.722	2215.146	1576.095	614.620	2354.152	1453.731	518.738	2411.697	1315.807	583.812	2478.651	1252.704	548.233	2502.336	1134.288	659.413	1987.398	1150.904	428.456	2068.040	1226.803	422.371	2119.309	1220.024	435.418	2174.175	1229.275	658.392	2242.339	1140.297	596.494	1905.674	945.307	446.114	1935.316	959.299	442.574	1942.169	884.419	494.624	1913.242	736.598	519.451	1881.124	604.358	519.632	1887.797	529.609	410.041	1928.939	610.231	408.762	1924.204	534.040	482.647	1893.856	333.176	416.000	1943.641	299.427	601.492	1863.865	276.053	601.164	2311.737	907.015	604.707	2298.866	826.356	453.212	2305.103	908.614	447.167	2300.314	831.778	498.549	2312.685	727.354	540.301	2333.915	641.728	429.575	2319.859	642.753	424.497	2335.966	567.413	505.320	2357.408	338.178	421.695	2325.911	297.122	604.830	2384.169	278.569	537.608	1927.178	1274.721	537.920	1892.525	1094.409	511.286	2077.764	693.949	506.683	1984.807	337.282	619.007	1978.725	279.421	592.008	2319.784	1270.698	527.754	2324.235	1112.061	500.385	2145.449	695.209	511.381	2262.038	333.772	624.132	2261.474	279.316	562.114	2015.946	1100.941	554.799	2214.128	1080.645
	453	2.26000	537.203	1931.589	1605.795	617.124	2081.669	1600.401	587.194	1883.975	1396.921	470.558	1852.424	1305.952	551.515	1763.830	1247.491	503.650	1733.578	1132.388	572.053	2308.477	1609.951	626.809	2138.956	1600.732	444.622	2215.061	1576.046	614.634	2354.167	1453.698	518.738	2411.697	1315.807	583.812	2478.651	1252.704	548.162	2502.335	1134.306	659.413	1987.398	1150.904	428.420	2068.039	1226.759	422.423	2119.313	1220.090	435.552	2174.830	1229.266	658.447	2242.522	1140.090	596.494	1905.674	945.307	446.034	1935.584	959.410	442.626	1942.161	884.465	494.643	1913.209	736.539	519.451	1881.124	604.358	519.705	1887.587	529.631	410.056	1929.008	610.188	408.545	1924.528	533.828	482.647	1893.856	333.176	416.000	1943.641	299.427	601.226	1863.847	276.332	601.146	2311.838	906.941	604.944	2298.946	826.491	452.727	2306.403	908.986	447.273	2300.424	831.735	498.482	2312.717	727.331	540.242	2333.968	641.705	429.575	2319.859	642.753	424.477	2335.881	567.275	505.416	2357.432	338.204	421.805	2325.966	297.189	604.806	2384.104	278.642	537.322	1927.341	1274.599	537.920	1892.525	1094.409	511.286	2077.764	693.949	506.572	1984.780	337.320	618.097	1978.483	279.223	592.008	2319.784	1270.698	527.754	2324.235	1112.061	500.385	2145.449	695.209	511.761	2260.434	333.919	624.157	2261.431	279.345	562.078	2016.038	1100.952	554.818	2214.209	1080.526
	454	2.26500	537.216	1931.621	1605.809	617.124	2081.669	1600.401	587.194	1883.975	1396.921	470.535	1852.075	1305.927	551.515	1763.830	1247.491	503.589	1733.557	1132.517	572.151	2308.524	1609.931	626.885	2139.113	1600.736	444.622	2215.061	1576.046	614.620	2354.152	1453.731	518.738	2411.697	1315.807	583.812	2478.651	1252.704	548.162	2502.335	1134.306	659.413	1987.398	1150.904	428.420	2068.039	1226.759	422.288	2119.141	1220.111	435.552	2174.830	1229.266	658.278	2242.401	1140.230	596.494	1905.674	945.307	445.962	1935.105	959.098	442.545	1942.292	884.399	494.627	1913.358	736.517	519.451	1881.124	604.358	519.705	1887.587	529.631	410.056	1929.008	610.188	408.837	1924.304	533.951	482.148	1893.942	333.255	416.215	1942.736	299.716	601.492	1863.865	276.053	601.164	2311.737	907.015	604.801	2298.831	826.375	452.727	2306.403	908.986	447.361	2300.159	831.605	498.477	2312.918	727.362	540.242	2333.968	641.705	429.712	2319.848	642.733	424.550	2336.003	567.377	505.529	2357.432	338.181	421.805	2325.966	297.189	604.830	2384.169	278.569	537.322	1927.341	1274.599	537.920	1892.525	1094.409	510.948	2077.578	694.023	506.683	1984.807	337.282	618.242	1978.450	279.021	592.008	2319.784	1270.698	527.754	2324.235	1112.061	500.385	2145.449	695.209	511.381	2262.038	333.772	624.221	2261.381	279.372	562.049	2016.011	1100.964	554.762	2214.187	1080.590
	455	2.27000	537.216	1931.621	1605.809	617.124	2081.669	1600.401	587.117	1883.825	1396.962	470.535	1852.075	1305.927	551.486	1764.029	1247.457	503.589	1733.557	1132.517	572.010	2308.493	1609.933	626.809	2138.956	1600.732	444.661	2215.188	1576.100	614.620	2354.152	1453.731	518.627	2411.762	1315.809	583.812	2478.651	1252.704	548.162	2502.335	1134.306	659.413	1987.398	1150.904	428.420	2068.039	1226.759	422.371	2119.309	1220.024	435.552	2174.830	1229.266	658.477	2242.494	1140.302	596.494	1905.674	945.307	446.034	1935.584	959.410	442.626	1942.161	884.465	494.644	1913.377	736.424	519.451	1881.124	604.358	519.632	1887.797	529.609	410.031	1928.747	610.278	408.913	1924.103	533.938	482.626	1893.968	333.105	416.000	1943.641	299.427	601.492	1863.865	276.053	601.031	2311.901	907.051	604.538	2298.767	826.292	453.379	2304.943	908.053	447.167	2300.314	831.778	498.477	2312.918	727.362	540.242	2333.968	641.705	429.462	2319.888	642.746	424.531	2335.918	567.239	505.320	2357.408	338.178	421.805	2325.966	297.189	604.986	2384.090	278.630	537.244	1927.020	1274.799	537.920	1892.525	1094.409	510.948	2077.578	694.023	506.683	1984.807	337.282	619.007	1978.725	279.421	592.008	2319.784	1270.698	527.754	2324.235	1112.061	500.389	2145.379	695.056	511.761	2260.434	333.919	624.132	2261.474	279.316	562.104	2016.084	1100.937	554.896	2214.270	1080.637
